<?xml version="1.0" encoding="UTF-8" standalone="no"?>
<!-- Created with Inkscape (http://www.inkscape.org/) -->

<svg
   width="256"
   height="256"
   viewBox="0 0 67.733332 67.733333"
   version="1.1"
   id="svg1"
   inkscape:version="1.3 (0e150ed6c4, 2023-07-21)"
   sodipodi:docname="kitty.svg"
   inkscape:export-filename="kitty-draft-1.png"
   inkscape:export-xdpi="384"
   inkscape:export-ydpi="384"
   xmlns:inkscape="http://www.inkscape.org/namespaces/inkscape"
   xmlns:sodipodi="http://sodipodi.sourceforge.net/DTD/sodipodi-0.dtd"
   xmlns="http://www.w3.org/2000/svg"
   xmlns:svg="http://www.w3.org/2000/svg"
   xmlns:rdf="http://www.w3.org/1999/02/22-rdf-syntax-ns#"
   xmlns:cc="http://creativecommons.org/ns#">
  <sodipodi:namedview
     id="namedview1"
     pagecolor="#ffffff"
     bordercolor="#000000"
     borderopacity="0.25"
     inkscape:showpageshadow="2"
     inkscape:pageopacity="0.0"
     inkscape:pagecheckerboard="0"
     inkscape:deskcolor="#d1d1d1"
     inkscape:document-units="mm"
     inkscape:zoom="2.9255612"
     inkscape:cx="94.853596"
     inkscape:cy="122.54059"
     inkscape:window-width="1920"
     inkscape:window-height="1039"
     inkscape:window-x="0"
     inkscape:window-y="0"
     inkscape:window-maximized="1"
     inkscape:current-layer="layer1" />
  <defs
     id="defs1" />
  <g
     inkscape:label="图层 1"
     inkscape:groupmode="layer"
     id="layer1">
    <path
       style="fill:#adedf4;fill-opacity:1;fill-rule:evenodd;stroke:none;stroke-width:1.26548;stroke-linecap:round;stroke-linejoin:round;stroke-dasharray:none;stroke-opacity:1"
       d="M 9.8875092,21.341337 C -3.7390822,35.670072 -0.59937392,64.3075 35.869291,64.436115 72.337955,64.564734 68.783468,30.816787 56.023995,20.127236 56.890126,13.330723 57.556479,8.9106725 54.516248,3.1963551 51.232696,3.4838035 44.640422,8.0817286 42.430913,12.917806 40.140298,11.995433 28.396109,10.715602 23.831186,13.557645 22.42935,10.884559 17.379983,5.6479427 10.831211,3.4739096 8.8616394,10.848697 9.7728091,17.441545 9.8875092,21.341333 Z"
       id="path16"
       sodipodi:nodetypes="czccccccc" />
    <path
       id="path21"
       style="fill:#82e3f9;fill-opacity:1;fill-rule:evenodd;stroke:#008fb5;stroke-width:1.05833333;stroke-linecap:round;stroke-linejoin:round;stroke-dasharray:none;stroke-opacity:1"
       d="m 53.060101,18.983193 -0.758616,-2.733815 c 0,0 1.060837,0.234244 2.226908,0.07916 -0.583233,-0.406085 -1.136161,-0.814413 -1.677363,-1.361015 0.581938,-0.263511 1.631315,-1.474191 1.92415,-1.577081 0,0 -2.297075,-0.309902 -3.73082,0.263604 0.08603,-0.630849 0.718066,-1.577822 0.689392,-2.352044 0,0 -3.212268,0.983745 -4.588661,1.786643 l -0.869708,2.187675 m -31.988065,5.085665 0.758615,-2.733814 c 0,0 -1.060835,0.234244 -2.226909,0.07916 0.583233,-0.406085 1.136163,-0.814413 1.677364,-1.361014 -0.581937,-0.26351 -1.631314,-1.47419 -1.92415,-1.57708 0,0 2.297077,-0.309904 3.730821,0.263602 -0.08603,-0.630849 -0.718068,-1.577821 -0.689394,-2.352043 0,0 3.084369,1.143619 4.460763,1.946518 l 1.28538,2.443474"
       sodipodi:nodetypes="cccccccccccccccccc" />
    <path
       id="path22"
       style="fill:none;fill-opacity:1;fill-rule:evenodd;stroke:#008fb5;stroke-width:1.05833;stroke-linecap:round;stroke-linejoin:round;stroke-dasharray:none;stroke-opacity:1"
       d="m 53.184852,6.3684898 c -3.487501,1.2976793 -6.759345,7.3425692 -6.921553,8.9646682 3.804836,0.882765 5.507602,2.735623 6.77326,3.688548 M 23.75605,13.346326 c 4.337272,-1.966831 13.71337,-2.348671 18.630673,-0.462682 m -0.387412,1.067764 C 43.326844,9.9425137 48.352511,5.1313032 54.354261,3.5092039 57.111823,8.2132924 57.335112,15.711872 55.7802,19.957156 M 10.646597,23.531535 C 8.1347352,17.087271 9.3431556,5.9120811 10.884148,3.397827 13.073977,3.0734071 23.486615,10.653332 25.044899,16.239708 M 9.6831771,21.542567 C -1.3436938,33.095454 -3.441175,65.206557 35.943134,64.221764 75.327444,63.236974 66.648912,25.796599 55.780869,19.95704 M 13.444709,7.8562112 c 2.838669,1.5409945 6.547424,5.6298378 8.007309,9.3606648 -2.189831,-0.324419 -5.432827,1.546759 -7.136028,3.168857"
       sodipodi:nodetypes="ccccccccccccscccc" />
    <g
       id="g9"
       transform="matrix(1.7923907,-0.06556617,0.06556603,1.7923947,-26.312358,-20.748811)">
      <path
         style="fill:none;fill-opacity:1;fill-rule:evenodd;stroke:#1a1a1a;stroke-width:0.590064;stroke-linecap:round;stroke-linejoin:round;stroke-dasharray:none;stroke-opacity:1"
         d="m 38.821646,38.876182 c -0.08709,0.557842 -0.505576,0.644482 -0.505576,0.644482"
         id="path5"
         sodipodi:nodetypes="cc" />
      <path
         style="fill:none;fill-opacity:1;fill-rule:evenodd;stroke:#1a1a1a;stroke-width:0.590064;stroke-linecap:round;stroke-linejoin:round;stroke-dasharray:none;stroke-opacity:1"
         d="m 33.799476,43.202635 c 0.736081,1.101082 2.540811,0.901812 3.324807,0.281323 0.889024,0.58644 2.148557,0.530555 2.886011,-0.444521"
         id="path8"
         sodipodi:nodetypes="ccc" />
      <path
         id="path15"
         style="fill:#1a1a1a;fill-opacity:1;fill-rule:evenodd;stroke:none;stroke-width:0.653237;stroke-linecap:round;stroke-linejoin:round;stroke-dasharray:none;stroke-opacity:1"
         d="m 28.612991,32.264232 6.044274,2.194796 -5.659245,3.32523 -0.51343,-1.030874 4.109705,-2.118647 -4.36056,-1.23214 z"
         sodipodi:nodetypes="ccccccc" />
      <path
         id="circle8"
         style="display:inline;fill:#1a1a1a;fill-opacity:1;fill-rule:evenodd;stroke-width:1.13337;stroke-linecap:round;stroke-linejoin:round"
         d="m 41.594086,35.209746 a 0.32127119,0.32127119 0 0 0 0.275675,0.361156 0.32127119,0.32127119 0 0 0 0.361156,-0.275675 0.32127119,0.32127119 0 0 0 -0.275675,-0.361156 0.32127119,0.32127119 0 0 0 -0.361156,0.275675 z m 1.607827,0.166953 a 0.64254239,0.64254239 0 0 0 0.55135,0.722312 0.64254239,0.64254239 0 0 0 0.722312,-0.551349 0.64254239,0.64254239 0 0 0 -0.551349,-0.722313 0.64254239,0.64254239 0 0 0 -0.722313,0.55135 z m -2.18362,-2.394074 a 1.2850847,1.2850847 0 0 0 1.102699,1.444625 1.2850847,1.2850847 0 0 0 1.444625,-1.102699 1.2850847,1.2850847 0 0 0 -1.1027,-1.444624 1.2850847,1.2850847 0 0 0 -1.444624,1.102698 z m -1.216983,0.764978 a 3.2127118,3.2127118 0 0 0 2.756748,3.611562 3.2127118,3.2127118 0 0 0 3.611562,-2.756748 3.2127118,3.2127118 0 0 0 -2.756748,-3.611561 3.2127118,3.2127118 0 0 0 -3.611562,2.756747 z" />
    </g>
    <path
       id="path19"
       style="fill:#82e3f9;fill-opacity:1;fill-rule:evenodd;stroke:none;stroke-width:1.26548;stroke-linecap:round;stroke-linejoin:round;stroke-dasharray:none;stroke-opacity:1"
       d="m 39.717682,18.425778 c 2.242193,1.671467 3.067701,4.196177 3.335716,7.549906 1.346347,-3.337965 0.131972,-6.506618 -3.335716,-7.549906 z m -3.85378,0.09867 c 2.587969,1.871346 3.305686,4.4839 3.949489,7.755235 0.837158,-3.151506 0.385287,-6.905244 -3.949489,-7.755235 z m -4.161407,0.109645 c 2.587973,1.871348 4.356975,4.859278 5.000778,8.130612 0.837157,-3.151505 -0.497882,-7.711339 -5.000778,-8.130612 z" />
    <path
       id="path25"
       style="fill:#82e3f9;fill-opacity:1;fill-rule:evenodd;stroke:none;stroke-width:0.910092;stroke-linecap:round;stroke-linejoin:round;stroke-dasharray:none;stroke-opacity:1"
       d="m 24.083812,47.200157 c 0.156472,-3.337939 -6.473884,-1.063039 -4.267314,1.170105 2.206573,2.233149 4.110833,2.167836 4.267314,-1.170105 z m -6.092189,-7.632395 c -3.121166,-1.796094 -4.340098,5.435839 -1.066502,4.508966 3.273594,-0.926869 4.18767,-2.712871 1.066502,-4.508966 z m -1.664445,-6.826245 c -2.07755,4.162496 7.624981,4.988592 6.079071,0.906069 -1.545909,-4.082523 -4.001519,-5.068567 -6.079071,-0.906069 z" />
    <path
       id="path29"
       style="fill:#82e3f9;fill-opacity:1;fill-rule:evenodd;stroke:none;stroke-width:0.575809;stroke-linecap:round;stroke-linejoin:round;stroke-dasharray:none;stroke-opacity:1"
       d="m 57.086418,51.492085 c -0.441662,-0.403575 -2.831652,0.158464 -2.355616,1.194718 0.476033,1.036259 1.629948,1.831618 2.322478,0.850208 0.692541,-0.981413 0.474799,-1.641358 0.03312,-2.044926 z m 1.38289,-4.23493 c -0.742604,0.09724 -2.03345,2.832551 -0.635769,3.211495 1.39768,0.378948 3.080538,-0.0835 2.641464,-1.534636 -0.439073,-1.451156 -1.263093,-1.774091 -2.005695,-1.676859 z m 0.576338,-4.335114 c -0.645283,0.787614 0.05377,3.965226 1.666974,2.878861 1.613201,-1.086361 2.903762,-3.041812 1.45188,-3.639309 -1.45188,-0.5975 -2.473572,-0.02716 -3.118854,0.760448 z" />
    <path
       style="fill:none;fill-opacity:1;fill-rule:evenodd;stroke:#1a1a1a;stroke-width:1.05833;stroke-linecap:round;stroke-linejoin:round;stroke-dasharray:none;stroke-opacity:1"
       d="m 23.33313,29.935141 c 2.622717,-2.532278 6.149817,-3.61754 9.315166,-2.080088"
       id="path30"
       sodipodi:nodetypes="cc" />
    <path
       style="fill:none;fill-opacity:1;fill-rule:evenodd;stroke:#1a1a1a;stroke-width:1.05833;stroke-linecap:round;stroke-linejoin:round;stroke-dasharray:none;stroke-opacity:1"
       d="m 54.624849,26.408041 c -2.170525,-1.537456 -5.335871,-1.266142 -6.692451,0.09043"
       id="path31"
       sodipodi:nodetypes="cc" />
  </g>
  <metadata
     id="metadata31">
    <rdf:RDF>
      <cc:License
         rdf:about="http://creativecommons.org/publicdomain/zero/1.0/">
        <cc:permits
           rdf:resource="http://creativecommons.org/ns#Reproduction" />
        <cc:permits
           rdf:resource="http://creativecommons.org/ns#Distribution" />
        <cc:permits
           rdf:resource="http://creativecommons.org/ns#DerivativeWorks" />
      </cc:License>
      <cc:Work
         rdf:about="">
        <cc:license
           rdf:resource="http://creativecommons.org/publicdomain/zero/1.0/" />
      </cc:Work>
    </rdf:RDF>
  </metadata>
</svg>
